<svg width="46" height="32" viewBox="0 0 46 32" fill="none" xmlns="http://www.w3.org/2000/svg">
<mask id="path-1-inside-1_121_725" fill="white">
<path d="M0 4C0 1.79086 1.79086 0 4 0H42C44.2091 0 46 1.79086 46 4V28C46 30.2091 44.2091 32 42 32H4C1.79086 32 0 30.2091 0 28V4Z"/>
</mask>
<path d="M0 4C0 1.79086 1.79086 0 4 0H42C44.2091 0 46 1.79086 46 4V28C46 30.2091 44.2091 32 42 32H4C1.79086 32 0 30.2091 0 28V4Z" fill="#ECF5FF"/>
<path d="M4 1H42V-1H4V1ZM45 4V28H47V4H45ZM42 31H4V33H42V31ZM1 28V4H-1V28H1ZM4 31C2.34315 31 1 29.6569 1 28H-1C-1 30.7614 1.23858 33 4 33V31ZM45 28C45 29.6569 43.6569 31 42 31V33C44.7614 33 47 30.7614 47 28H45ZM42 1C43.6569 1 45 2.34315 45 4H47C47 1.23858 44.7614 -1 42 -1V1ZM4 -1C1.23858 -1 -1 1.23858 -1 4H1C1 2.34315 2.34315 1 4 1V-1Z" fill="#409EFF" mask="url(#path-1-inside-1_121_725)"/>
<g clip-path="url(#clip0_121_725)">
<path d="M26.5 12.5H20.8396C20.7119 12.5 20.607 12.459 20.5251 12.3771C20.4431 12.2951 20.4021 12.1902 20.4021 12.0625C20.4021 11.9347 20.4431 11.8299 20.5251 11.7479C20.607 11.666 20.7119 11.625 20.8396 11.625H26.9375C27.0653 11.625 27.1701 11.666 27.2521 11.7479C27.334 11.8299 27.375 11.9347 27.375 12.0625V18.1875C27.375 18.3152 27.334 18.4201 27.2521 18.5021C27.1701 18.584 27.0653 18.625 26.9375 18.625C26.8098 18.625 26.7049 18.584 26.6229 18.5021C26.541 18.4201 26.5 18.3152 26.5 18.1875V12.5ZM26.6229 11.7479C26.7142 11.666 26.8191 11.625 26.9375 11.625C27.0559 11.625 27.1584 11.6683 27.2451 11.7549C27.3317 11.8416 27.375 11.9441 27.375 12.0625C27.375 12.1809 27.334 12.2858 27.2521 12.3771L19.8146 19.8146C19.7233 19.8965 19.6184 19.9375 19.5 19.9375C19.3816 19.9375 19.2791 19.8942 19.1924 19.8076C19.1058 19.7209 19.0625 19.6184 19.0625 19.5C19.0625 19.3816 19.1035 19.2767 19.1854 19.1854L26.6229 11.7479Z" fill="#409EFF"/>
</g>
<defs>
<clipPath id="clip0_121_725">
<rect width="14" height="14" fill="white" transform="translate(16 9)"/>
</clipPath>
</defs>
</svg>
