<svg width="148" height="148" viewBox="0 0 148 148" fill="none" xmlns="http://www.w3.org/2000/svg">
<path d="M2.46885 147.696C1.49109 147.291 0.708983 146.509 0.303522 145.531L0.765385 145.34C0.594542 144.928 0.5 144.475 0.5 144V142.478H0V139.435H0.5V136.391H0V133.348H0.5V130.304H0V127.261H0.5V124.217H0V121.174H0.5V118.13H0V115.087H0.5V112.044H0V109H0.5V105.957H0V102.913H0.5V99.8696H0V96.8261H0.5V93.7826H0V90.7392H0.5V87.6957H0V84.6522H0.5V81.6087H0V78.5652H0.5V75.5218H0V72.4783H0.5V69.4348H0V66.3913H0.5V63.3478H0V60.3044H0.5V57.2609H0V54.2174H0.5V51.1739H0V48.1304H0.5V45.087H0V42.0435H0.5V39H0V35.9565H0.5V32.913H0V29.8696H0.5V26.8261H0V23.7826H0.5V20.7391H0V17.6957H0.5V14.6522H0V11.6087H0.5V8.56522H0V5.52174H0.5V4C0.5 3.52451 0.594542 3.07236 0.765385 2.66037L0.303522 2.46885C0.708984 1.49109 1.49109 0.708983 2.46885 0.303522L2.66038 0.765385C3.07236 0.594542 3.52451 0.5 4 0.5H5.52171V0H8.56518V0.5H11.6087V0H14.6521V0.5H17.6956V0H20.7391V0.5H23.7826V0H26.826V0.5H29.8695V0H32.913V0.5H35.9565V0H39V0.5H42.0434V0H45.0869V0.5H48.1304V0H51.1739V0.5H54.2174V0H57.2608V0.5H60.3043V0H63.3478V0.5H66.3913V0H69.4348V0.5H72.4782V0H75.5217V0.5H78.5652V0H81.6087V0.5H84.6522V0H87.6956V0.5H90.7391V0H93.7826V0.5H96.8261V0H99.8696V0.5H102.913V0H105.957V0.5H109V0H112.043V0.5H115.087V0H118.13V0.5H121.174V0H124.217V0.5H127.261V0H130.304V0.5H133.348V0H136.391V0.5H139.435V0H142.478V0.5H144C144.475 0.5 144.928 0.594543 145.34 0.765386L145.531 0.303522C146.509 0.708984 147.291 1.49109 147.696 2.46885L147.235 2.66038C147.405 3.07236 147.5 3.52451 147.5 4V5.52171H148V8.56518H147.5V11.6087H148V14.6521H147.5V17.6956H148V20.7391H147.5V23.7826H148V26.826H147.5V29.8695H148V32.913H147.5V35.9565H148V39H147.5V42.0434H148V45.0869H147.5V48.1304H148V51.1739H147.5V54.2174H148V57.2608H147.5V60.3043H148V63.3478H147.5V66.3913H148V69.4348H147.5V72.4782H148V75.5217H147.5V78.5652H148V81.6087H147.5V84.6522H148V87.6956H147.5V90.7391H148V93.7826H147.5V96.8261H148V99.8696H147.5V102.913H148V105.957H147.5V109H148V112.043H147.5V115.087H148V118.13H147.5V121.174H148V124.217H147.5V127.261H148V130.304H147.5V133.348H148V136.391H147.5V139.435H148V142.478H147.5V144C147.5 144.475 147.405 144.928 147.235 145.34L147.696 145.531C147.291 146.509 146.509 147.291 145.531 147.696L145.34 147.235C144.928 147.405 144.475 147.5 144 147.5H142.478V148H139.435V147.5H136.391V148H133.348V147.5H130.304V148H127.261V147.5H124.217V148H121.174V147.5H118.13V148H115.087V147.5H112.044V148H109V147.5H105.957V148H102.913V147.5H99.8696V148H96.8261V147.5H93.7826V148H90.7392V147.5H87.6957V148H84.6522V147.5H81.6087V148H78.5652V147.5H75.5218V148H72.4783V147.5H69.4348V148H66.3913V147.5H63.3478V148H60.3044V147.5H57.2609V148H54.2174V147.5H51.1739V148H48.1304V147.5H45.087V148H42.0435V147.5H39V148H35.9565V147.5H32.913V148H29.8696V147.5H26.8261V148H23.7826V147.5H20.7391V148H17.6957V147.5H14.6522V148H11.6087V147.5H8.56522V148H5.52174V147.5H4C3.52451 147.5 3.07236 147.405 2.66037 147.235L2.46885 147.696Z" fill="white"/>
<path d="M2.46885 147.696C1.49109 147.291 0.708983 146.509 0.303522 145.531L0.765385 145.34C0.594542 144.928 0.5 144.475 0.5 144V142.478H0V139.435H0.5V136.391H0V133.348H0.5V130.304H0V127.261H0.5V124.217H0V121.174H0.5V118.13H0V115.087H0.5V112.044H0V109H0.5V105.957H0V102.913H0.5V99.8696H0V96.8261H0.5V93.7826H0V90.7392H0.5V87.6957H0V84.6522H0.5V81.6087H0V78.5652H0.5V75.5218H0V72.4783H0.5V69.4348H0V66.3913H0.5V63.3478H0V60.3044H0.5V57.2609H0V54.2174H0.5V51.1739H0V48.1304H0.5V45.087H0V42.0435H0.5V39H0V35.9565H0.5V32.913H0V29.8696H0.5V26.8261H0V23.7826H0.5V20.7391H0V17.6957H0.5V14.6522H0V11.6087H0.5V8.56522H0V5.52174H0.5V4C0.5 3.52451 0.594542 3.07236 0.765385 2.66037L0.303522 2.46885C0.708984 1.49109 1.49109 0.708983 2.46885 0.303522L2.66038 0.765385C3.07236 0.594542 3.52451 0.5 4 0.5H5.52171V0H8.56518V0.5H11.6087V0H14.6521V0.5H17.6956V0H20.7391V0.5H23.7826V0H26.826V0.5H29.8695V0H32.913V0.5H35.9565V0H39V0.5H42.0434V0H45.0869V0.5H48.1304V0H51.1739V0.5H54.2174V0H57.2608V0.5H60.3043V0H63.3478V0.5H66.3913V0H69.4348V0.5H72.4782V0H75.5217V0.5H78.5652V0H81.6087V0.5H84.6522V0H87.6956V0.5H90.7391V0H93.7826V0.5H96.8261V0H99.8696V0.5H102.913V0H105.957V0.5H109V0H112.043V0.5H115.087V0H118.13V0.5H121.174V0H124.217V0.5H127.261V0H130.304V0.5H133.348V0H136.391V0.5H139.435V0H142.478V0.5H144C144.475 0.5 144.928 0.594543 145.34 0.765386L145.531 0.303522C146.509 0.708984 147.291 1.49109 147.696 2.46885L147.235 2.66038C147.405 3.07236 147.5 3.52451 147.5 4V5.52171H148V8.56518H147.5V11.6087H148V14.6521H147.5V17.6956H148V20.7391H147.5V23.7826H148V26.826H147.5V29.8695H148V32.913H147.5V35.9565H148V39H147.5V42.0434H148V45.0869H147.5V48.1304H148V51.1739H147.5V54.2174H148V57.2608H147.5V60.3043H148V63.3478H147.5V66.3913H148V69.4348H147.5V72.4782H148V75.5217H147.5V78.5652H148V81.6087H147.5V84.6522H148V87.6956H147.5V90.7391H148V93.7826H147.5V96.8261H148V99.8696H147.5V102.913H148V105.957H147.5V109H148V112.043H147.5V115.087H148V118.13H147.5V121.174H148V124.217H147.5V127.261H148V130.304H147.5V133.348H148V136.391H147.5V139.435H148V142.478H147.5V144C147.5 144.475 147.405 144.928 147.235 145.34L147.696 145.531C147.291 146.509 146.509 147.291 145.531 147.696L145.34 147.235C144.928 147.405 144.475 147.5 144 147.5H142.478V148H139.435V147.5H136.391V148H133.348V147.5H130.304V148H127.261V147.5H124.217V148H121.174V147.5H118.13V148H115.087V147.5H112.044V148H109V147.5H105.957V148H102.913V147.5H99.8696V148H96.8261V147.5H93.7826V148H90.7392V147.5H87.6957V148H84.6522V147.5H81.6087V148H78.5652V147.5H75.5218V148H72.4783V147.5H69.4348V148H66.3913V147.5H63.3478V148H60.3044V147.5H57.2609V148H54.2174V147.5H51.1739V148H48.1304V147.5H45.087V148H42.0435V147.5H39V148H35.9565V147.5H32.913V148H29.8696V147.5H26.8261V148H23.7826V147.5H20.7391V148H17.6957V147.5H14.6522V148H11.6087V147.5H8.56522V148H5.52174V147.5H4C3.52451 147.5 3.07236 147.405 2.66037 147.235L2.46885 147.696Z" stroke="#DCDFE6" stroke-dasharray="3 3"/>
<path d="M73.125 73.125V63.5C73.125 63.2445 73.207 63.0348 73.3709 62.8709C73.5348 62.707 73.7445 62.625 74 62.625C74.2555 62.625 74.4652 62.707 74.6291 62.8709C74.793 63.0348 74.875 63.2445 74.875 63.5V73.125H84.5C84.7555 73.125 84.9652 73.207 85.1291 73.3709C85.293 73.5348 85.375 73.7445 85.375 74C85.375 74.2555 85.293 74.4652 85.1291 74.6291C84.9652 74.793 84.7555 74.875 84.5 74.875H74.875V84.5C74.875 84.7555 74.793 84.9652 74.6291 85.1291C74.4652 85.293 74.2555 85.375 74 85.375C73.7445 85.375 73.5348 85.293 73.3709 85.1291C73.207 84.9652 73.125 84.7555 73.125 84.5V74.875H63.5C63.2445 74.875 63.0348 74.793 62.8709 74.6291C62.707 74.4652 62.625 74.2555 62.625 74C62.625 73.7445 62.707 73.5348 62.8709 73.3709C63.0348 73.207 63.2445 73.125 63.5 73.125H73.125Z" fill="#909399"/>
</svg>
