<svg width="14" height="13" viewBox="0 0 14 13" fill="none" xmlns="http://www.w3.org/2000/svg">
<path d="M1 5H13V4C12.9897 3.71867 12.8907 3.48433 12.703 3.297C12.5153 3.10967 12.281 3.01067 12 3H2C1.71867 3.01033 1.48433 3.10933 1.297 3.297C1.10967 3.48467 1.01067 3.719 1 4V5ZM1 6V11C1.01033 11.2813 1.10933 11.5157 1.297 11.703C1.48467 11.8903 1.719 11.9893 2 12H12C12.2813 11.9897 12.5157 11.8907 12.703 11.703C12.8903 11.5153 12.9893 11.281 13 11V6H1ZM2 2H12C12.5627 2.01033 13.034 2.20567 13.414 2.586C13.794 2.96633 13.9893 3.43767 14 4V11C13.9897 11.5627 13.7943 12.034 13.414 12.414C13.0337 12.794 12.5623 12.9893 12 13H2C1.43733 12.9897 0.966 12.7943 0.586 12.414C0.206 12.0337 0.0106667 11.5623 0 11V4C0.0103333 3.43733 0.205667 2.966 0.586 2.586C0.966333 2.206 1.43767 2.01067 2 2ZM5 1V2H9V1H5ZM5 0H9C9.28133 0.0103333 9.51567 0.109333 9.703 0.297C9.89033 0.484667 9.98933 0.719 10 1V2C9.98967 2.28133 9.89067 2.51567 9.703 2.703C9.51533 2.89033 9.281 2.98933 9 3H5C4.71867 2.98967 4.48433 2.89067 4.297 2.703C4.10967 2.51533 4.01067 2.281 4 2V1C4.01033 0.718667 4.10933 0.484333 4.297 0.297C4.48467 0.109667 4.719 0.0106667 5 0Z" fill="#303133"/>
</svg>
