<svg width="14" height="14" viewBox="0 0 14 14" fill="none" xmlns="http://www.w3.org/2000/svg">
<path d="M7 0C8.97933 0.052 10.6278 0.736833 11.9455 2.0545C13.2632 3.37217 13.948 5.02067 14 7C13.948 8.97933 13.2632 10.6278 11.9455 11.9455C10.6278 13.2632 8.97933 13.948 7 14C5.02067 13.948 3.37217 13.2632 2.0545 11.9455C0.736833 10.6278 0.052 8.97933 0 7C0.052 5.02067 0.736833 3.37217 2.0545 2.0545C3.37217 0.736833 5.02067 0.052 7 0ZM7 3C6.729 3 6.505 3.099 6.328 3.297C6.151 3.495 6.07283 3.72933 6.0935 4L6.453 8C6.474 8.146 6.53383 8.26317 6.6325 8.3515C6.73117 8.43983 6.8535 8.48417 6.9995 8.4845C7.1455 8.48483 7.26783 8.4405 7.3665 8.3515C7.46517 8.2625 7.525 8.14533 7.546 8L7.9055 4C7.9265 3.729 7.84833 3.49467 7.671 3.297C7.49367 3.09933 7.26967 3.00033 6.999 3H7ZM7 11C7.22933 10.9897 7.4195 10.9115 7.5705 10.7655C7.7215 10.6195 7.797 10.432 7.797 10.203C7.797 9.974 7.7215 9.78383 7.5705 9.6325C7.4195 9.48117 7.22933 9.40567 7 9.406C6.77067 9.40633 6.5805 9.48183 6.4295 9.6325C6.2785 9.78317 6.203 9.97333 6.203 10.203C6.203 10.4327 6.2785 10.6202 6.4295 10.7655C6.5805 10.9108 6.77067 10.989 7 11Z" fill="#F56C6C"/>
</svg>
