<svg width="25" height="26" viewBox="0 0 25 26" fill="none" xmlns="http://www.w3.org/2000/svg">
<path d="M4.78234 12.7829C3.6603 12.7829 2.68195 12.5288 1.84726 12.0208C1.01257 11.4994 0.396817 10.7774 0 9.85494L2.19618 8.8121C2.4288 9.33353 2.76404 9.74798 3.20191 10.0555C3.65346 10.3496 4.18711 10.4967 4.80287 10.4967C5.47335 10.4967 6.04122 10.3162 6.50644 9.95521C6.98537 9.59422 7.32061 9.11293 7.51217 8.51129H3.32506V6.38553H7.49165C7.30008 5.79727 6.96484 5.33602 6.48591 5.00177C6.02069 4.65416 5.45967 4.48036 4.80287 4.48036C4.18711 4.48036 3.65346 4.6341 3.20191 4.94161C2.76404 5.23573 2.4288 5.64351 2.19618 6.16492L0 5.1221C0.396817 4.1996 1.01257 3.48432 1.84726 2.97627C2.68195 2.45486 3.6603 2.19415 4.78234 2.19415C5.57598 2.19415 6.30803 2.32786 6.97852 2.59524C7.649 2.86263 8.22372 3.2303 8.70262 3.69824C9.18154 4.16618 9.55784 4.7277 9.8315 5.3828C10.1052 6.02454 10.242 6.72644 10.242 7.48852C10.242 8.25058 10.1052 8.95917 9.8315 9.61429C9.55784 10.256 9.18154 10.8109 8.70262 11.2788C8.22372 11.7467 7.649 12.1144 6.97852 12.3818C6.30803 12.6492 5.57598 12.7829 4.78234 12.7829Z" fill="black"/>
<path d="M13.7942 1.96769V8.30488L18.0635 1.96769H20.7317V11.9949H18.1045V5.65771L13.8014 10.7716L10.969 13.6661V1.96769H13.7942Z" fill="black"/>
<path d="M20.7317 12.9841C20.7317 12.6864 20.935 12.488 21.1382 12.2895C21.3415 12.0909 21.8002 11.9917 22.2791 11.9917C22.8264 11.9917 23.2644 12.199 23.5927 12.6134C23.9211 13.0145 22.0528 14.0086 24.0854 14.2378C26.1179 14.4671 24.187 17.8173 22.4593 19.1073C22.4593 19.1073 22.5813 17.8173 22.4593 17.2218C22.3577 16.7257 22.0528 16.031 22.0528 16.031C22.9675 14.9394 22.7374 15.2199 22.8659 14.9688C22.9675 14.7704 22.8659 14.5719 22.561 14.3734C22.3217 14.2177 22.1545 14.2378 21.9512 14.1456C21.3415 13.964 20.7317 13.8648 20.7317 12.9841Z" fill="#EA263D"/>
<path d="M9.2015 25.9769H6.58854V19.9767C6.20541 20.1638 5.78122 20.3109 5.316 20.4179C4.86443 20.5115 4.39921 20.5584 3.92028 20.5584C2.72984 20.5584 1.77884 20.2307 1.0673 19.5756C0.355768 18.9205 0 17.9579 0 16.6878V13.6661H2.62722V16.0461C2.62722 16.7546 2.77772 17.2961 3.07876 17.6705C3.3798 18.0448 3.89293 18.232 4.61813 18.232C5.00128 18.232 5.35703 18.1852 5.68545 18.0916C6.02752 17.9846 6.32856 17.851 6.58854 17.6905V13.6661H9.2015V25.9769Z" fill="black"/>
<path d="M16.4185 21.0419C16.8153 21.0419 17.1779 20.9684 17.5063 20.8214C17.8484 20.6743 18.1426 20.4738 18.3889 20.2198C18.6352 19.9657 18.8268 19.6582 18.9636 19.2972C19.1005 18.9362 19.1689 18.5485 19.1689 18.1341C19.1689 17.7062 19.1005 17.3185 18.9636 16.9709C18.8268 16.6233 18.6352 16.3225 18.3889 16.0685C18.1426 15.8144 17.8484 15.6206 17.5063 15.4869C17.1779 15.3398 16.8153 15.2663 16.4185 15.2663C16.0217 15.2663 15.6523 15.3398 15.3102 15.4869C14.9818 15.6206 14.6944 15.8144 14.4481 16.0685C14.2018 16.3225 14.0102 16.6233 13.8734 16.9709C13.7366 17.3185 13.6681 17.7062 13.6681 18.1341C13.6681 18.5485 13.7366 18.9362 13.8734 19.2972C14.0102 19.6582 14.2018 19.9657 14.4481 20.2198C14.6944 20.4738 14.9818 20.6743 15.3102 20.8214C15.6523 20.9684 16.0217 21.0419 16.4185 21.0419ZM17.1369 23.4486C16.357 23.4486 15.6728 23.288 15.0844 22.9673C14.5097 22.633 14.0376 22.1851 13.6681 21.6236V25.9769H10.969L11.0409 15.2663L13.6681 12.7829V14.6847C14.0376 14.1232 14.5097 13.682 15.0844 13.3611C15.6728 13.0269 16.357 12.8598 17.1369 12.8598C17.8348 12.8598 18.471 12.9935 19.0457 13.2608C19.6341 13.5282 20.1336 13.9026 20.5441 14.3839C20.9683 14.8518 21.2965 15.4067 21.5293 16.0484C21.7618 16.6902 21.8783 17.3921 21.8783 18.1541C21.8783 18.9162 21.7618 19.6181 21.5293 20.2599C21.2965 20.9015 20.9683 21.463 20.5441 21.9443C20.1336 22.4123 19.6341 22.7801 19.0457 23.0474C18.471 23.3148 17.8348 23.4486 17.1369 23.4486Z" fill="black"/>
<path d="M16.0241 0.400096C16.7618 -0.267921 18.0274 0.154946 18.0274 0.154946L14.9495 4.53151C14.9495 4.53151 14.7184 1.5826 16.0241 0.400096Z" fill="#EA263D"/>
</svg>
