<svg width="14" height="14" viewBox="0 0 14 14" fill="none" xmlns="http://www.w3.org/2000/svg">
<path d="M8.5995 7.23231C9.83004 7.61527 10.8144 8.29894 11.5526 9.28331C12.2908 10.2677 12.6691 11.4024 12.6875 12.6875H1.3125C1.33087 11.4024 1.70917 10.2677 2.44737 9.28331C3.18558 8.29894 4.16996 7.61527 5.4005 7.23231L7 9.625L8.5995 7.23231ZM9.84375 4.15625C9.82537 4.95833 9.54742 5.62829 9.00987 6.16612C8.47233 6.70396 7.80237 6.98192 7 7C6.19792 6.98163 5.52796 6.70367 4.99013 6.16612C4.45229 5.62858 4.17433 4.95863 4.15625 4.15625C4.17462 3.35417 4.45258 2.68421 4.99013 2.14638C5.52767 1.60854 6.19763 1.33058 7 1.3125C7.80208 1.33087 8.47204 1.60883 9.00987 2.14638C9.54771 2.68392 9.82567 3.35387 9.84375 4.15625Z" fill="#303133"/>
</svg>
