<svg width="24" height="24" viewBox="0 0 24 24" fill="none" xmlns="http://www.w3.org/2000/svg">
<path d="M8.99998 22.5001V21.0001H13.5V22.5001H8.99998ZM19.5 9.75012C19.5 11.0001 19.2382 12.1759 18.7147 13.2774C18.1912 14.3789 17.453 15.3204 16.5 16.1019C16.047 16.4769 15.6837 16.9184 15.4102 17.4264C15.1367 17.9344 15 18.4851 15 19.0786V19.5009H7.49998V19.1724C7.49998 18.5944 7.38673 18.0474 7.16023 17.5314C6.93373 17.0154 6.60173 16.5856 6.16423 16.2421C4.92973 15.2576 4.04698 14.0506 3.51598 12.6211C2.98498 11.1916 2.85998 9.70337 3.14098 8.15637C3.46898 6.53137 4.19948 5.13687 5.33248 3.97287C6.46548 2.80887 7.84448 2.04712 9.46948 1.68762C10.704 1.42212 11.9227 1.42987 13.1257 1.71087C14.3287 1.99187 15.4225 2.53087 16.407 3.32787C17.3915 4.12487 18.1532 5.07812 18.6922 6.18762C19.2312 7.29712 19.5007 8.48462 19.5007 9.75012H19.5ZM6.74998 10.5001C6.76548 8.92212 7.17573 7.66037 7.98073 6.71487C8.78573 5.76937 9.87548 5.28112 11.25 5.25012V3.75012C9.42198 3.79712 7.97273 4.44162 6.90223 5.68362C5.83173 6.92562 5.28098 8.53112 5.24998 10.5001H6.74998Z" fill="#9FCEFF"/>
</svg>
