<svg width="14" height="14" viewBox="0 0 14 14" fill="none" xmlns="http://www.w3.org/2000/svg">
<g clip-path="url(#clip0_437_21256)">
<path d="M3.0625 1.75V11.375H10.9375V1.75H3.0625ZM2.625 0.875H11.375C11.5028 0.875 11.6076 0.915979 11.6896 0.997937C11.7715 1.0799 11.8125 1.18475 11.8125 1.3125V11.8125C11.8125 11.9403 11.7715 12.0451 11.6896 12.1271C11.6076 12.209 11.5028 12.25 11.375 12.25H2.625C2.49725 12.25 2.3924 12.209 2.31044 12.1271C2.22848 12.0451 2.1875 11.9403 2.1875 11.8125V1.3125C2.1875 1.18475 2.22848 1.0799 2.31044 0.997937C2.3924 0.915979 2.49725 0.875 2.625 0.875ZM0.875 11.375H13.125V12.25H0.875V11.375ZM4.375 2.625H6.125V3.9375H4.375V2.625ZM5.25 11.375H8.75V10.5C8.74096 10.0077 8.57004 9.59525 8.23725 9.26275C7.90446 8.93025 7.49204 8.75933 7 8.75C6.50767 8.75904 6.09525 8.92996 5.76275 9.26275C5.43025 9.59554 5.25933 10.008 5.25 10.5V11.375ZM7 7.875C7.74754 7.89337 8.36733 8.14858 8.85938 8.64062C9.35142 9.13267 9.60662 9.75246 9.625 10.5V12.25H4.375V10.5C4.39337 9.75246 4.64858 9.13267 5.14062 8.64062C5.63267 8.14858 6.25246 7.89337 7 7.875ZM4.375 5.25H6.125V6.5625H4.375V5.25ZM7.875 2.625H9.625V3.9375H7.875V2.625ZM7.875 5.25H9.625V6.5625H7.875V5.25Z" fill="#606266"/>
</g>
<defs>
<clipPath id="clip0_437_21256">
<rect width="14" height="14" fill="white"/>
</clipPath>
</defs>
</svg>
