<svg width="16" height="16" viewBox="0 0 16 16" fill="none" xmlns="http://www.w3.org/2000/svg">
<g clip-path="url(#clip0_437_21223)">
<path d="M12.5 6.5C12.4687 5.229 12.0285 4.16917 11.1795 3.3205C10.3305 2.47183 9.27067 2.03167 8 2C6.729 2.03133 5.66917 2.4715 4.8205 3.3205C3.97183 4.1695 3.53167 5.22933 3.5 6.5C3.5 7.427 3.87233 8.48683 4.617 9.6795C5.36167 10.8722 6.48933 12.1925 8 13.6405C9.51033 12.1925 10.638 10.8722 11.383 9.6795C12.128 8.48683 12.5003 7.427 12.5 6.5ZM8 15C4.33333 11.6667 2.5 8.83333 2.5 6.5C2.54167 4.93733 3.07817 3.6405 4.1095 2.6095C5.14083 1.5785 6.43767 1.042 8 1C9.56267 1.04167 10.8595 1.57817 11.8905 2.6095C12.9215 3.64083 13.458 4.93767 13.5 6.5C13.5 8.83333 11.6667 11.6667 8 15ZM8 8C8.427 7.98967 8.78117 7.84383 9.0625 7.5625C9.34383 7.28117 9.4845 6.927 9.4845 6.5C9.4845 6.073 9.34383 5.71883 9.0625 5.4375C8.78117 5.15617 8.427 5.0155 8 5.0155C7.573 5.0155 7.21883 5.15617 6.9375 5.4375C6.65617 5.71883 6.5155 6.073 6.5155 6.5C6.5155 6.927 6.65617 7.28117 6.9375 7.5625C7.21883 7.84383 7.573 7.98967 8 8ZM8 9C7.29167 8.979 6.70317 8.73417 6.2345 8.2655C5.76583 7.79683 5.521 7.20833 5.5 6.5C5.521 5.79167 5.76583 5.20317 6.2345 4.7345C6.70317 4.26583 7.29167 4.021 8 4C8.70833 4.021 9.29683 4.26583 9.7655 4.7345C10.2342 5.20317 10.479 5.79167 10.5 6.5C10.479 7.20833 10.2342 7.79683 9.7655 8.2655C9.29683 8.73417 8.70833 8.979 8 9Z" fill="#303133"/>
</g>
<defs>
<clipPath id="clip0_437_21223">
<rect width="16" height="16" fill="white"/>
</clipPath>
</defs>
</svg>
