<svg width="16" height="16" viewBox="0 0 16 16" fill="none" xmlns="http://www.w3.org/2000/svg">
<g clip-path="url(#clip0_734_6659)">
<path d="M12 4H5.531C5.385 4 5.26517 3.95317 5.1715 3.8595C5.07783 3.76583 5.031 3.646 5.031 3.5C5.031 3.354 5.07783 3.23417 5.1715 3.1405C5.26517 3.04683 5.385 3 5.531 3H12.5C12.646 3 12.7658 3.04683 12.8595 3.1405C12.9532 3.23417 13 3.354 13 3.5V10.5C13 10.646 12.9532 10.7658 12.8595 10.8595C12.7658 10.9532 12.646 11 12.5 11C12.354 11 12.2342 10.9532 12.1405 10.8595C12.0468 10.7658 12 10.646 12 10.5V4ZM12.1405 3.1405C12.2448 3.04683 12.3647 3 12.5 3C12.6353 3 12.7525 3.0495 12.8515 3.1485C12.9505 3.2475 13 3.36467 13 3.5C13 3.63533 12.9532 3.75517 12.8595 3.8595L4.3595 12.3595C4.25517 12.4532 4.13533 12.5 4 12.5C3.86467 12.5 3.7475 12.4505 3.6485 12.3515C3.5495 12.2525 3.5 12.1353 3.5 12C3.5 11.8647 3.54683 11.7448 3.6405 11.6405L12.1405 3.1405Z" fill="white"/>
</g>
<defs>
<clipPath id="clip0_734_6659">
<rect width="16" height="16" fill="white"/>
</clipPath>
</defs>
</svg>
